<svg xmlns="http://www.w3.org/2000/svg" xmlns:xlink="http://www.w3.org/1999/xlink" width="115.297" height="67.92" viewBox="0 0 115.297 67.92"><defs><style>.a{fill:#000;}.b{clip-path:url(#a);}</style><clipPath id="a"><rect class="a" width="115.297" height="67.92"/></clipPath></defs><g class="b"><path class="a" d="M663.165,410.212H659.13V407.6h3.385a.457.457,0,0,0,.488-.5v-.2a.454.454,0,0,0-.488-.488H659.13v-2.521H663a.462.462,0,0,0,.5-.488v-.2a.464.464,0,0,0-.5-.5h-4.6a.459.459,0,0,0-.5.5v7.715a.464.464,0,0,0,.5.5h4.757a.464.464,0,0,0,.5-.5v-.2a.462.462,0,0,0-.488-.5" transform="translate(-591.027 -361.767)"/></g><g class="b"><path class="a" d="M731.914,407.15l-.224-.081a.684.684,0,0,0-.183-.03c-.142,0-.325.061-.457.356-.275.895-.722,1.454-2.155,1.454-1.4,0-2.165-.691-2.165-1.931v-2.785c0-1.26.752-1.921,2.165-1.921,1.26,0,1.819.366,2.124,1.4a.462.462,0,0,0,.457.335.908.908,0,0,0,.193-.03l.234-.081a.479.479,0,0,0,.295-.62c-.447-1.5-1.494-2.216-3.3-2.216-2.125,0-3.4,1.169-3.4,3.131V406.9c0,1.972,1.271,3.141,3.4,3.141,1.809,0,2.866-.722,3.324-2.257a.483.483,0,0,0-.3-.63" transform="translate(-651.756 -360.24)"/></g><g class="b"><path class="a" d="M806.695,401c-2.124,0-3.4,1.179-3.4,3.141V406.9c0,1.972,1.271,3.141,3.4,3.141s3.385-1.169,3.385-3.141v-2.755c-.01-1.962-1.271-3.141-3.385-3.141m-2.175,3.141c0-1.271.752-1.941,2.165-1.941,1.393,0,2.155.691,2.155,1.941V406.9c0,1.26-.762,1.952-2.155,1.952-1.423,0-2.165-.671-2.165-1.952Z" transform="translate(-721.647 -360.24)"/></g><g class="b"><path class="a" d="M852.434,296.014a3.075,3.075,0,0,1-3.385,3.273h-1.626v2.267c0,.407-.132.559-.559.559h-1.494c-.427,0-.569-.142-.569-.559v-8.294c0-.407.142-.559.569-.559h3.659a3.106,3.106,0,0,1,3.405,3.314m-2.7-.01a.918.918,0,0,0-1-.976h-1.311v1.952h1.311a.928.928,0,0,0,1-.976" transform="translate(-758.929 -262.948)"/></g><g class="b"><path class="a" d="M938.076,290.8c2.612,0,4.066,1.423,4.066,3.71V296.9c0,2.287-1.453,3.71-4.066,3.71S934,299.2,934,296.9V294.51c0-2.3,1.454-3.71,4.076-3.71m0,2.318c-.925,0-1.453.437-1.453,1.271v2.622c0,.834.528,1.271,1.453,1.271s1.443-.437,1.443-1.271v-2.622c0-.833-.528-1.271-1.443-1.271" transform="translate(-839.062 -261.241)"/></g><g class="b"><path class="a" d="M662.676,290.8c2.043,0,3.314.833,3.862,2.318.132.386.041.59-.356.722l-1.423.508c-.406.122-.569.051-.711-.356a1.29,1.29,0,0,0-1.382-.864c-1.047,0-1.454.447-1.454,1.382v2.409c0,.925.407,1.372,1.454,1.372a1.3,1.3,0,0,0,1.382-.864c.152-.417.315-.5.711-.356l1.423.508c.4.132.488.325.356.711-.559,1.484-1.83,2.318-3.862,2.318-2.612,0-4.076-1.413-4.076-3.71V294.51c0-2.3,1.474-3.71,4.076-3.71" transform="translate(-591.656 -261.241)"/></g><g class="b"><path class="a" d="M753.676,290.8c2.612,0,4.066,1.423,4.066,3.71V296.9c0,2.287-1.464,3.71-4.066,3.71-2.622,0-4.076-1.413-4.076-3.71V294.51c0-2.3,1.454-3.71,4.076-3.71m0,2.318c-.925,0-1.454.437-1.454,1.271v2.622c0,.834.528,1.271,1.454,1.271s1.443-.437,1.443-1.271v-2.622c0-.833-.529-1.271-1.443-1.271" transform="translate(-673.406 -261.241)"/></g><g class="b"><path class="a" d="M812.262,151.832v1.555c0,.559-.193.752-.742.752h-4.584v1.545h3.659c.559,0,.742.193.742.732v1.565c0,.559-.193.742-.742.742h-3.659v1.667h4.737c.539,0,.732.173.732.732V162.7c0,.539-.193.722-.732.722h-7.42c-.559,0-.752-.193-.752-.722V151.832c0-.539.193-.732.752-.732h7.268c.549,0,.742.193.742.732" transform="translate(-721.827 -135.741)"/></g><g class="b"><path class="a" d="M916.514,160.645c1.2,0,1.809-.569,1.809-1.6v-7.217c0-.539.173-.732.732-.732h1.962c.559,0,.752.193.752.732V158.9c0,2.917-1.809,4.788-5.245,4.788-3.415,0-5.225-1.87-5.225-4.788v-7.064c0-.539.173-.732.722-.732h1.962c.559,0,.752.193.752.732v7.217c-.01,1.016.579,1.6,1.779,1.6" transform="translate(-818.67 -135.741)"/></g><g class="b"><path class="a" d="M669.642,150.9H667.9c-.569,0-.732.091-.976.559l-2.867,5.6-2.866-5.621c-.244-.437-.417-.539-1.027-.539h-1.626c-.559,0-.742.173-.742.732v10.9c0,.539.193.712.742.712h1.769c.559,0,.742-.173.742-.712v-5.7c.63,1.443,1.565,3.5,1.565,3.5a.76.76,0,0,0,.833.508h1.179a.794.794,0,0,0,.833-.508s.925-2.013,1.565-3.456v5.662c0,.539.173.712.722.712h1.891c.559,0,.742-.173.742-.712v-10.9c.01-.559-.183-.732-.742-.732" transform="translate(-590.937 -135.562)"/></g><g class="b"><path class="a" d="M150.273,97.639a25.027,25.027,0,0,0-24.385-23.307c-.752-.02-1.5,0-2.257.051a25.013,25.013,0,0,0,1.149,49.959c.752.01,1.5,0,2.257-.051a25.01,25.01,0,0,0,23.236-26.652m-19.8,23.989a3.382,3.382,0,0,1-3.334-.844,3.956,3.956,0,0,1-.783-2.185,20.8,20.8,0,0,1,2.521-10.226.919.919,0,0,1,.813-.508,1.437,1.437,0,0,1,.5.112,8.635,8.635,0,0,0,3.222.762,5.278,5.278,0,0,0,2.175-.386.181.181,0,0,0-.091-.346,4.736,4.736,0,0,1-.64.02,7.153,7.153,0,0,1-3.913-1.281.9.9,0,0,1-.315-.661,1.128,1.128,0,0,1,.224-.61,17.854,17.854,0,0,1,5.885-4.645.187.187,0,0,0,.1-.224.178.178,0,0,0-.224-.112,17.445,17.445,0,0,0-4.229,1.911.145.145,0,0,0-.061.02,1.159,1.159,0,0,1-.59.234.37.37,0,0,1-.234-.091c-.61-2.714,1.921-4.625,2.043-4.716a.187.187,0,0,0,.051-.234.169.169,0,0,0-.213-.081,5.334,5.334,0,0,0-3.324,5.347.3.3,0,0,0-.02.091,2.479,2.479,0,0,1-.529,1.728c-.01.02-.03.03-.03.061a15.778,15.778,0,0,0-3.049,4.655,59.209,59.209,0,0,1,2.724-14.108c.264-.579.6-.691,1.24-.895,2.714-.7,3.466-2.053,3.507-2.124a.174.174,0,0,0-.041-.213.185.185,0,0,0-.213-.02,7.242,7.242,0,0,1-3.293,1.169h-.081c-.071,0-.173-.02-.2-.071a.362.362,0,0,1,0-.234,25.574,25.574,0,0,1,2.206-4.147.161.161,0,0,0-.031-.224.184.184,0,0,0-.234-.01,15.1,15.1,0,0,0-3.212,4.523c-.061.092-.224.274-.346.264-.1,0-.183-.142-.234-.254a14.7,14.7,0,0,1-.579-6.15.179.179,0,0,0-.132-.193.191.191,0,0,0-.213.1c-.051.112-1.108,2.6-.051,7.186a5.912,5.912,0,0,1-.122,2.9v.01a50.791,50.791,0,0,0-2.562,12.889,40.983,40.983,0,0,0-2.561-9.189c1.718-3.995,1-10.012.986-10.073a.179.179,0,0,0-.193-.152.186.186,0,0,0-.163.183,21.127,21.127,0,0,1-1.067,7.664c-.1.163-.193.254-.285.254-.183,0-.4-.325-.478-.478-.01-.02-.031-.03-.041-.051a21.682,21.682,0,0,0-3.334-4.96.185.185,0,0,0-.234-.02.176.176,0,0,0-.051.224c.712,1.271,1.352,2.521,1.931,3.771a1.1,1.1,0,0,1,.122.752.3.3,0,0,1-.152.163l-.071.02a5.955,5.955,0,0,1-1.352.122,5.2,5.2,0,0,1-1.647-.3.169.169,0,0,0-.213.081.173.173,0,0,0,.051.224,5.578,5.578,0,0,0,2.887,1h.213c.173,0,.59-.01.8-.01h.041a.38.38,0,0,1,.3.193,47.481,47.481,0,0,1,3.1,13A19.214,19.214,0,0,0,120.8,108.3a12.169,12.169,0,0,0-4.076-3.537.166.166,0,0,0-.213.061.171.171,0,0,0,.02.224,28.852,28.852,0,0,1,3.558,4.452,1.022,1.022,0,0,1-.01,1.22h0a3.722,3.722,0,0,1-2.826.976,7.424,7.424,0,0,1-2.3-.437.168.168,0,0,0-.213.081.176.176,0,0,0,.051.224,4.6,4.6,0,0,0,2.744.986,6.4,6.4,0,0,0,3.06-.8.876.876,0,0,1,.366-.061.579.579,0,0,1,.5.264,17.7,17.7,0,0,1,1.85,6.566,3.47,3.47,0,0,1-.63,2.185c-.671.813-1.88,1.016-3.568.6a22.844,22.844,0,0,1,4.666-44.785c.691-.051,1.382-.061,2.063-.051a22.877,22.877,0,0,1,4.635,45.161" transform="translate(-90.129 -66.769)"/></g><g class="b"><path class="a" d="M357,127.175a7.849,7.849,0,0,0-.935-.092c-.773-.02-1.26.132-1.3.386v.041l-.285,5.53h0a.187.187,0,0,0,.051.152,2.437,2.437,0,0,0,1.393.549,3.718,3.718,0,0,0,.661.061c.264.01.884-.01.935-.285.071-.234,1.474-5.2,1.5-5.377.061-.4-1-.793-2.023-.966m1.494,1c-.01.071-.244.183-.834.163a4.913,4.913,0,0,1-.834-.081c-1-.163-1.586-.468-1.555-.61.01-.071.244-.183.844-.173a6.4,6.4,0,0,1,.833.081,5.312,5.312,0,0,1,1.149.3c.285.142.407.254.4.315" transform="translate(-318.443 -114.165)"/></g><g class="b"><path class="a" d="M292.536,169c-.02-.274-.407-5.4-.447-5.56-.061-.285-.62-.346-.945-.356a5.934,5.934,0,0,0-1.291.122c-1.027.2-2.074.63-1.992,1.047a.061.061,0,0,1,.01.041l1.637,5.3h0c.051.213.447.254.691.254a3.768,3.768,0,0,0,.915-.091c.732-.142,1.474-.457,1.423-.752h0m-.935-5.377c.031.142-.549.468-1.535.661a5.13,5.13,0,0,1-1.118.112c-.417-.01-.549-.091-.559-.142s.061-.163.4-.315a5.86,5.86,0,0,1,1.138-.346,5.13,5.13,0,0,1,1.118-.112c.417.01.549.091.559.142" transform="translate(-258.597 -146.508)"/></g><g class="b"><path class="a" d="M217.527,197.579c-.112-.193-2.633-4.727-2.734-4.869a.317.317,0,0,0-.274-.112,3.909,3.909,0,0,0-1.85.844c-.844.61-1.616,1.443-1.372,1.789l.03.031,3.71,4.127h0a.252.252,0,0,0,.2.081,2.7,2.7,0,0,0,1.321-.6c.579-.437,1.118-1.016.966-1.291Zm-4.228-3.253a3.441,3.441,0,0,1-1.443.7c-.03,0-.081-.01-.091-.031-.091-.122.295-.651,1.118-1.24a3.368,3.368,0,0,1,1.443-.7.142.142,0,0,1,.091.031c.091.122-.295.651-1.118,1.24" transform="translate(-189.778 -173.021)"/></g><g class="b"><path class="a" d="M183.422,264.835c.01,0,.031.01.041.01l5.255,1.748h0a.092.092,0,0,0,.051.01c.285.041.732-.579,1.027-1.22.315-.681.488-1.474.2-1.606h0c-.254-.152-4.625-2.805-4.777-2.877a.147.147,0,0,0-.071-.02c-.4-.051-1.016.823-1.423,1.708-.437.966-.691,2.074-.3,2.246m.274-.935a5.718,5.718,0,0,1,.386-1.128c.417-.9.844-1.362.986-1.342h.01c.132.061.061.711-.356,1.636-.417.9-.844,1.362-1.006,1.342h0c-.03-.02-.081-.152-.02-.508" transform="translate(-164.607 -234.362)"/></g><g class="b"><path class="a" d="M197.854,333.572h0c-.274-.152-4.747-2.592-4.91-2.663a.224.224,0,0,0-.081-.01c-.4-.01-.966.884-1.332,1.769-.386.976-.6,2.084-.2,2.246a.061.061,0,0,0,.041.01l5.336,1.5a.129.129,0,0,0,.061.01c.285.01.7-.63.956-1.26.285-.691.427-1.494.132-1.606m-5.3-.488c-.335.833-.752,1.393-.925,1.393h-.02c-.041-.02-.1-.142-.051-.508a4.987,4.987,0,0,1,.335-1.138c.335-.834.752-1.393.925-1.393h.02c.132.051.091.7-.285,1.647" transform="translate(-171.691 -297.265)"/></g><g class="b"><path class="a" d="M180.254,396.683h0c-.254-.132-4.747-2.592-4.91-2.663-.03-.01-.051-.01-.081-.02-.4-.01-.966.884-1.332,1.779-.386.966-.6,2.084-.2,2.246.02,0,.031.01.041.01l5.336,1.5h0a.129.129,0,0,0,.061.01c.285,0,.7-.63.955-1.26.274-.691.417-1.484.132-1.606m-5.306-.488c-.335.833-.752,1.393-.925,1.393H174c-.132-.051-.091-.711.285-1.647.335-.833.752-1.393.925-1.382h.02a.11.11,0,0,1,.041.051,2.839,2.839,0,0,1-.325,1.586" transform="translate(-155.88 -353.951)"/></g><g class="b"><path class="a" d="M407.54,151.87c.122-.193,2.877-4.584,2.948-4.747.183-.376-.722-1.067-1.667-1.515a4.87,4.87,0,0,0-1.748-.518c-.254-.01-.417.051-.478.183a.061.061,0,0,0-.01.041l-1.819,5.235h0a.224.224,0,0,0,0,.163,2.522,2.522,0,0,0,1.189.925,3.486,3.486,0,0,0,1.24.366c.183,0,.3-.051.346-.132m.813-5.275c-.915-.437-1.393-.884-1.332-1.016.02-.041.1-.061.214-.061a4.2,4.2,0,0,1,1.413.447c.915.437,1.393.884,1.321,1.016-.02.041-.1.061-.213.051a4,4,0,0,1-1.4-.437" transform="translate(-363.609 -130.341)"/></g><g class="b"><path class="a" d="M428.632,196.836h0a.2.2,0,0,0,.142-.051c.183-.122,4.473-3.039,4.6-3.161.315-.274-.234-1.26-.925-2.053a3.4,3.4,0,0,0-1.708-1.271.293.293,0,0,0-.193.061l-.031.031-3.771,4.066h0a.207.207,0,0,0-.061.152,3.448,3.448,0,0,0,1.941,2.226m2.2-6.007a.078.078,0,0,1,.051-.02,2.963,2.963,0,0,1,1.281,1.016c.661.762.915,1.372.8,1.464a.076.076,0,0,1-.051.01,2.992,2.992,0,0,1-1.281-1.016c-.661-.752-.915-1.362-.8-1.454" transform="translate(-383.319 -170.957)"/></g><g class="b"><path class="a" d="M434.789,256.967c-.478-.956-1.077-1.657-1.423-1.667a.205.205,0,0,0-.112.03c-.01.01-.02.01-.03.02l-4.666,2.988h0a.187.187,0,0,0-.091.132,2.483,2.483,0,0,0,.366,1.464c.346.691.762,1.179,1.027,1.189a.3.3,0,0,0,.091-.02c.224-.081,5.092-1.83,5.245-1.911.346-.193.061-1.291-.407-2.226m-1.392-1.138h.02c.183,0,.62.508,1.016,1.311a4.788,4.788,0,0,1,.417,1.118c.071.315.051.478-.01.508h-.03c-.173,0-.62-.508-1.016-1.311-.437-.9-.529-1.555-.4-1.626" transform="translate(-384.891 -229.35)"/></g><g class="b"><path class="a" d="M470.007,303.633c-.153-.976-.518-2.023-.925-2.033h-.041c-.02,0-.03.01-.041.01l-5.357,1.423h0a.226.226,0,0,0-.132.091,2.511,2.511,0,0,0-.1,1.5c.112.712.376,1.443.671,1.454h.03c.224-.01,5.408-.183,5.581-.213.417-.061.478-1.2.315-2.236m-.437,1.7a.068.068,0,0,1-.061.041c-.142,0-.437-.559-.59-1.565s-.041-1.647.1-1.667h.01c.142,0,.437.559.59,1.565a2.971,2.971,0,0,1-.051,1.626" transform="translate(-416.257 -270.944)"/></g><g class="b"><path class="a" d="M458.882,374.7h-.041c-.02,0-.03.01-.041.01l-5.357,1.423h0a.226.226,0,0,0-.132.091,2.475,2.475,0,0,0-.1,1.494c.112.712.376,1.443.671,1.454h.031c.224-.01,5.408-.183,5.58-.213.417-.061.478-1.2.315-2.226-.152-.976-.528-2.023-.925-2.033m.478,3.73a.13.13,0,0,1-.061.041c-.142,0-.437-.559-.59-1.565s-.041-1.647.1-1.667h.01c.142,0,.437.559.59,1.565a2.973,2.973,0,0,1-.051,1.626" transform="translate(-407.093 -336.613)"/></g></svg>